<?xml version="1.0" encoding="UTF-8"?>
<svg id="Capa_2" data-name="Capa 2" xmlns="http://www.w3.org/2000/svg" viewBox="0 0 522.62 310.27">
  <defs>
    <style>
      .cls-1 {
        fill: #f2e9e9;
        stroke: #1d1d1b;
        stroke-width: 2.67px;
      }

      .cls-1, .cls-2, .cls-3 {
        stroke-linecap: round;
      }

      .cls-1, .cls-2, .cls-3, .cls-4 {
        stroke-miterlimit: 10;
      }

      .cls-5 {
        fill: #fff;
        font-size: 26.11px;
      }

      .cls-5, .cls-6 {
        font-family: ModernAntiqua-Regular, 'Modern Antiqua';
      }

      .cls-2 {
        fill: #1d1d1b;
      }

      .cls-2, .cls-3 {
        stroke-width: 2.56px;
      }

      .cls-2, .cls-3, .cls-4 {
        stroke: #fff;
      }

      .cls-3, .cls-4 {
        fill: none;
      }

      .cls-7, .cls-6 {
        fill: #e44e2b;
      }

      .cls-4 {
        stroke-width: 2px;
      }

      .cls-6 {
        font-size: 79.59px;
      }
    </style>
  </defs>
  <g id="Capa_1-2" data-name="Capa 1">
    <g>
      <g>
        <g>
          <text class="cls-6" transform="translate(224.94 227.33)"><tspan x="0" y="0">LÚDICO</tspan></text>
          <text class="cls-6" transform="translate(242.91 135.19)"><tspan x="0" y="0">ZORRO</tspan></text>
        </g>
        <g>
          <line class="cls-1" x1="136.4" y1="220.53" x2="82.62" y2="257.04"/>
          <path class="cls-2" d="M146.48,232.16l-67.08,21.99c-.59.19-1.24.07-1.71-.33l-53.88-45.16c-.51-.42-.74-1.09-.62-1.74l13.85-73.61c.12-.66.6-1.2,1.24-1.4l66.88-20.83c.57-.18,1.2-.06,1.67.32l54.08,44c.52.42.77,1.1.64,1.76l-13.85,73.61c-.12.65-.59,1.19-1.22,1.39Z"/>
          <polyline class="cls-3" points="147.5 231.83 130.99 220.54 40.83 202.56 22.99 207.98"/>
          <path class="cls-3" d="M41.59,202.71l-4.23-68.68c-.06-.95.73-1.73,1.67-1.64l61.42,5.34c.1,0,.21.03.31.06l59.25,17.77c.92.27,1.37,1.32.94,2.18l-30.82,62.63-51.43,33.56-37.86-51.37,60.05-64.5,30.11,82.48-90.16-17.98"/>
          <text class="cls-5" transform="translate(74.1 190.28) rotate(9.37) skewX(.18)"><tspan x="0" y="0">20</tspan></text>
          <path class="cls-7" d="M160.14,167.8c-.57,11.43-1.62,13.4-6.97,18.73-3.2,3.19-7.27,5.35-11.69,6.3-48.95,10.53-58.02,41.2-58.02,41.2-25.7,54.23,51.58,76.24,51.58,76.24-2.07-1.42-1.52-1.95-3.01-3.93-4.83-6.43-6.88-14.6-5.34-22.5,3.95-20.23,24.67-11.9,52.63-38.66,12.2-11.68,20.57-32.42,19.87-45.66-1.41-26.75-18.96-49.22-19.17-49.5-18.85-25.23-67.2-39.12-87.23-63.38-2.05-2.48-8.34-5.7-9.99-10.9-1.2-3.77,12.75-17.97,12.62-18.1-3.03-3.03-11.24-9.13-11.95-12.86-.3-1.55-.66-3.33-1.09-5.27-.32-1.41-3.76-4.98-3.78-5.1-3.27-17.79-6.75-27.29-8.11-30.59-.52-1.26-1.39-2.35-2.55-3.08-1.5-.94-3.6-1.44-5.37,1.25-.08.13-3.14,7.2-3.14,7.2l-7.67,23.7s-3.15-2.21-7.55-1.86-7.44,2.9-7.44,2.9c0,0-8.6-12.31-14.18-20.18-2.64-3.73-4.61-6.38-4.64-6.43-2.9-3.25-5.61-1.02-6.62.46-4.16,6.09-1.44,16.88-.35,33.93.12,1.92-1.66,4.43-1.48,6.61.16,1.91.34,3.92.55,6.05l-5.88,18.8s14.29,10.61,15.13,15.26c1.1,6.08-.26,23.02-.26,23.02-2.54,24.85,13.3,38.93,13.3,38.93l4.43-19.05,69.65-22.37,53.74,45.08v13.71Z"/>
          <path class="cls-4" d="M141.84,269.46s20.16-17.2-7.49-13.01c0,0,13.59-21.3-10.11-9.68,0,0,6.74-22.86-12.78-6.13,0,0,3.95-22.88-14.87-4.17,0,0,1.58-19.78-13.99-1.08"/>
          <path class="cls-4" d="M29.83,78.8s8.25,16.61,16.38,19.87c8.13,3.25,16.03-2.56,16.03-2.56,0,0,6.07-6.91,7.7-22.6,0,0,1.77,10.34,4.79,10.81.37.04,12.54,7.99,13.54,11.72,2.32,8.71-12.09,21.28-4.3,21.85,0,0-39.93,12.41-39.85,12.33,7.52-7.2-17.91-13.07-18.95-20.62-.77-5.54.66-9.7,4.03-20.04,0,0,2.27-2.85.64-10.75Z"/>
          <path class="cls-2" d="M62.22,95.22s-9.68-9.3-16.26,2.69c0,0,9.91,12.8,16.26-2.69Z"/>
          <line class="cls-3" x1="100.62" y1="138.57" x2="106.04" y2="110.51"/>
          <polygon class="cls-7" points="95.8 50.69 90.12 54.82 80.58 42.26 95.8 50.69"/>
          <polygon class="cls-7" points="0 67 6.86 68.48 10.52 53.14 0 67"/>
        </g>
      </g>
      <path class="cls-4" d="M25.62,59.2s11.28-3.11,12.65,7.07"/>
      <path class="cls-4" d="M67.49,53.33s-11.65.14-10.32,10.32"/>
      <path class="cls-4" d="M96.92,213.08s-16.09,15.55-20.3,42.26"/>
    </g>
  </g>
</svg>