<?xml version="1.0" encoding="UTF-8"?>
<svg id="Capa_1" xmlns="http://www.w3.org/2000/svg" version="1.1" viewBox="0 0 1000 1000">
  <!-- Generator: Adobe Illustrator 30.3.0, SVG Export Plug-In . SVG Version: 2.1.3 Build 182)  -->
  <defs>
    <style>
      .st0 {
        stroke-width: 2.52px;
      }

      .st0, .st1, .st2 {
        stroke: #fff;
      }

      .st0, .st1, .st2, .st3 {
        stroke-miterlimit: 10;
      }

      .st0, .st2 {
        fill: none;
      }

      .st1 {
        fill: #1d1d1b;
      }

      .st1, .st2 {
        stroke-width: 3.23px;
      }

      .st1, .st2, .st3 {
        stroke-linecap: round;
      }

      .st4 {
        fill: #fff;
        font-size: 32.96px;
      }

      .st4, .st5 {
        font-family: ModernAntiqua-Regular, 'Modern Antiqua';
      }

      .st5 {
        font-size: 100.46px;
      }

      .st5, .st6 {
        fill: #e44e2b;
      }

      .st3 {
        fill: #f2e9e9;
        stroke: #1d1d1b;
        stroke-width: 3.37px;
      }
    </style>
  </defs>
  <g>
    <g>
      <text class="st5" transform="translate(454.09 610.37)"><tspan x="0" y="0">LÚDICO</tspan></text>
      <text class="st5" transform="translate(476.77 494.07)"><tspan x="0" y="0">ZORRO</tspan></text>
    </g>
    <g>
      <line class="st3" x1="342.34" y1="601.79" x2="274.46" y2="647.87"/>
      <path class="st1" d="M355.06,616.47l-84.66,27.76c-.74.24-1.56.09-2.16-.42l-68-57.01c-.64-.54-.94-1.38-.78-2.2l17.49-92.91c.16-.84.76-1.52,1.57-1.77l84.41-26.3c.72-.23,1.51-.07,2.1.41l68.25,55.54c.66.53.97,1.39.81,2.22l-17.49,92.91c-.16.83-.74,1.5-1.54,1.76Z"/>
      <polyline class="st2" points="356.35 616.05 335.51 601.8 221.71 579.11 199.2 585.94"/>
      <path class="st2" d="M222.67,579.3l-5.34-86.69c-.07-1.2.92-2.18,2.11-2.08l77.52,6.75c.13.01.26.04.39.07l74.78,22.43c1.16.35,1.72,1.66,1.19,2.75l-38.9,79.05-64.91,42.36-47.78-64.83,75.79-81.42,38,104.11-113.79-22.69"/>
      <text class="st4" transform="translate(263.7 563.61) rotate(9.37) skewX(.18)"><tspan x="0" y="0">20</tspan></text>
      <path class="st6" d="M372.3,535.23c-.72,14.43-2.05,16.91-8.8,23.64-4.04,4.03-9.18,6.75-14.75,7.95-61.79,13.3-73.24,52-73.24,52-32.44,68.45,65.1,96.23,65.1,96.23-2.61-1.8-1.92-2.46-3.8-4.97-6.1-8.12-8.68-18.43-6.73-28.4,4.98-25.53,31.14-15.02,66.42-48.79,15.4-14.74,25.96-40.92,25.08-57.63-1.78-33.77-23.93-62.12-24.2-62.47-23.8-31.85-84.83-49.38-110.11-80-2.59-3.13-10.52-7.19-12.61-13.76-1.51-4.76,16.09-22.68,15.93-22.84-3.82-3.82-14.18-11.52-15.09-16.23-.38-1.96-.83-4.21-1.38-6.65-.4-1.78-4.75-6.29-4.78-6.43-4.12-22.46-8.52-34.44-10.24-38.61-.66-1.59-1.76-2.97-3.21-3.89-1.89-1.19-4.55-1.81-6.78,1.58-.11.16-3.96,9.09-3.96,9.09l-9.68,29.92s-3.98-2.78-9.53-2.35-9.39,3.67-9.39,3.67c0,0-10.86-15.53-17.9-25.47-3.33-4.71-5.81-8.06-5.86-8.11-3.67-4.11-7.08-1.29-8.36.59-5.24,7.68-1.81,21.31-.44,42.82.15,2.42-2.09,5.59-1.86,8.34.2,2.41.43,4.95.69,7.64l-7.43,23.73s18.03,13.39,19.1,19.26c1.39,7.67-.33,29.06-.33,29.06-3.21,31.36,16.79,49.14,16.79,49.14l5.59-24.04,87.92-28.23,67.82,56.9v17.3Z"/>
      <path class="st0" d="M349.21,663.55s25.44-21.7-9.46-16.42c0,0,17.15-26.89-12.77-12.22,0,0,8.5-28.86-16.13-7.74,0,0,4.99-28.88-18.77-5.27,0,0,1.99-24.97-17.66-1.36"/>
      <path class="st0" d="M207.83,422.89s10.41,20.97,20.68,25.08,20.24-3.23,20.24-3.23c0,0,7.66-8.73,9.72-28.52,0,0,2.24,13.05,6.05,13.64.46.06,15.83,10.08,17.08,14.79,2.93,11-15.26,26.86-5.43,27.58,0,0-50.4,15.66-50.3,15.56,9.5-9.09-22.6-16.5-23.92-26.03-.97-6.99.83-12.24,5.08-25.3,0,0,2.86-3.59.81-13.57Z"/>
      <path class="st1" d="M248.71,443.63s-12.22-11.73-20.53,3.39c0,0,12.51,16.15,20.53-3.39Z"/>
      <line class="st2" x1="297.18" y1="498.34" x2="304.02" y2="462.92"/>
      <path class="st0" d="M258.38,411.97"/>
      <polygon class="st6" points="291.09 387.42 283.92 392.63 271.88 376.77 291.09 387.42"/>
      <polygon class="st6" points="170.18 408 178.84 409.88 183.46 390.51 170.18 408"/>
    </g>
  </g>
  <path class="st0" d="M202.52,398.16s14.24-3.92,15.97,8.92"/>
  <path class="st0" d="M255.36,390.75s-14.7.17-13.03,13.02"/>
  <path class="st0" d="M292.51,592.39s-20.31,19.63-25.62,53.34"/>
</svg>